<svg xmlns="http://www.w3.org/2000/svg" viewBox="0 0 116.54 144.5"><defs><style>.cls-1{fill:#fff;}</style></defs><title>circle</title><g id="Layer_2" data-name="Layer 2"><g id="Layer_1-2" data-name="Layer 1"><path class="cls-1" d="M9.75,40.43A24,24,0,1,1,47,10.42,68.57,68.57,0,0,1,115.94,25.6h-7.48A63.68,63.68,0,0,0,49.37,14.79,24,24,0,0,1,13.52,43.68a63.88,63.88,0,0,0,95.67,81.52h7.35A68.77,68.77,0,0,1,9.75,40.43ZM24.87,27.85l.65,10.33H28.9l.64-10.32a1.62,1.62,0,0,1,1.54-1.53l10.32-.65V22.3l-10.32-.65h.09a1.64,1.64,0,0,1-1.63-1.54L28.9,9.8H25.52l-.64,10.28a1.65,1.65,0,0,1-1.64,1.57h.1L13,22.3v3.38l10.32.65A1.62,1.62,0,0,1,24.87,27.85Z"/></g></g></svg>